<svg width="16" height="16" viewBox="0 0 16 16" fill="none" xmlns="http://www.w3.org/2000/svg">
<path d="M12.3201 8.16667C12.5067 8.16667 12.6667 8.00667 12.6534 7.82C12.4734 5.4 10.4601 3.5 8.00006 3.5C5.54006 3.5 3.52673 5.4 3.34673 7.82C3.33339 8.00667 3.49339 8.16667 3.68006 8.16667H12.3201Z" fill="#282828"/>
<path d="M14.6667 8.66663H14.6134C14.2467 8.66663 13.9467 8.36663 13.9467 7.99996C13.9467 7.63329 14.2467 7.33329 14.6134 7.33329C14.9801 7.33329 15.3067 7.63329 15.3067 7.99996C15.3067 8.36663 15.0334 8.66663 14.6667 8.66663ZM1.38675 8.66663H1.33341C0.966748 8.66663 0.666748 8.36663 0.666748 7.99996C0.666748 7.63329 0.966748 7.33329 1.33341 7.33329C1.70008 7.33329 2.02675 7.63329 2.02675 7.99996C2.02675 8.36663 1.75341 8.66663 1.38675 8.66663ZM12.6734 3.99329C12.5001 3.99329 12.3334 3.92663 12.2001 3.79996C11.9401 3.53996 11.9401 3.11996 12.2001 2.85996L12.2867 2.77329C12.5467 2.51329 12.9667 2.51329 13.2267 2.77329C13.4867 3.03329 13.4867 3.45329 13.2267 3.71329L13.1401 3.79996C13.0134 3.92663 12.8467 3.99329 12.6734 3.99329ZM3.32675 3.99329C3.15341 3.99329 2.98675 3.92663 2.85342 3.79996L2.76675 3.70663C2.50675 3.44663 2.50675 3.02663 2.76675 2.76663C3.02675 2.50663 3.44675 2.50663 3.70675 2.76663L3.79341 2.85329C4.05341 3.11329 4.05341 3.53329 3.79341 3.79329C3.66675 3.92663 3.49341 3.99329 3.32675 3.99329ZM8.00008 2.02663C7.63341 2.02663 7.33342 1.75329 7.33342 1.38663V1.33329C7.33342 0.966626 7.63341 0.666626 8.00008 0.666626C8.36675 0.666626 8.66675 0.966626 8.66675 1.33329C8.66675 1.69996 8.36675 2.02663 8.00008 2.02663Z" fill="#282828"/>
<path d="M13.3334 10.5H2.66675C2.39341 10.5 2.16675 10.2733 2.16675 10C2.16675 9.72667 2.39341 9.5 2.66675 9.5H13.3334C13.6067 9.5 13.8334 9.72667 13.8334 10C13.8334 10.2733 13.6067 10.5 13.3334 10.5Z" fill="#282828"/>
<path d="M12 12.5H4C3.72667 12.5 3.5 12.2733 3.5 12C3.5 11.7267 3.72667 11.5 4 11.5H12C12.2733 11.5 12.5 11.7267 12.5 12C12.5 12.2733 12.2733 12.5 12 12.5Z" fill="#282828"/>
<path d="M10 14.5H6C5.72667 14.5 5.5 14.2733 5.5 14C5.5 13.7267 5.72667 13.5 6 13.5H10C10.2733 13.5 10.5 13.7267 10.5 14C10.5 14.2733 10.2733 14.5 10 14.5Z" fill="#282828"/>
</svg>
